<svg width="46" height="46" viewBox="0 0 46 46" fill="none" xmlns="http://www.w3.org/2000/svg">
<path d="M44.2172 35.8501L34.0547 26.6101C33.5743 26.1735 32.9431 25.9406 32.2942 25.9607C31.6454 25.9807 31.0297 26.2522 30.5772 26.7176L24.5947 32.8701C23.1547 32.5951 20.2597 31.6926 17.2797 28.7201C14.2997 25.7376 13.3972 22.8351 13.1297 21.4051L19.2772 15.4201C19.7433 14.9679 20.0151 14.3522 20.0351 13.7031C20.0552 13.0541 19.8219 12.4227 19.3847 11.9426L10.1472 1.78261C9.70984 1.301 9.10193 1.00887 8.45261 0.968258C7.8033 0.927647 7.16372 1.14175 6.66973 1.56511L1.24473 6.21761C0.812506 6.6514 0.554527 7.22874 0.519728 7.84011C0.482228 8.46511 -0.232771 23.2701 11.2472 34.7551C21.2622 44.7676 33.8072 45.5001 37.2622 45.5001C37.7672 45.5001 38.0772 45.4851 38.1597 45.4801C38.771 45.4459 39.348 45.1868 39.7797 44.7526L44.4297 39.3251C44.8548 38.8327 45.0704 38.1936 45.0307 37.5444C44.991 36.8951 44.6991 36.2871 44.2172 35.8501Z" fill="#6B002C"/>
</svg>
